<?xml version="1.0" encoding="UTF-8"?>
<!DOCTYPE svg PUBLIC "-//W3C//DTD SVG 1.1//EN" "http://www.w3.org/Graphics/SVG/1.1/DTD/svg11.dtd">
<!-- Creator: CorelDRAW -->
<svg xmlns="http://www.w3.org/2000/svg" xml:space="preserve" width="168.572mm" height="97.743mm" version="1.1" style="shape-rendering:geometricPrecision; text-rendering:geometricPrecision; image-rendering:optimizeQuality; fill-rule:evenodd; clip-rule:evenodd"
viewBox="0 0 16711.86 9690"
 xmlns:xlink="http://www.w3.org/1999/xlink"
 xmlns:xodm="http://www.corel.com/coreldraw/odm/2003">
 <defs>
  <style type="text/css">
   <![CDATA[
    .fil0 {fill:#58BFC2}
   ]]>
  </style>
 </defs>
 <g id="Layer_x0020_1">
  <metadata id="CorelCorpID_0Corel-Layer"/>
  <path class="fil0" d="M8186.27 2373.22c-9.7,-256.94 35.32,-502.64 108.87,-750.04 62.77,-211.35 163.78,-398.74 278.46,-578.57 121.6,-190.54 276.92,-356.84 454.09,-501.39 157.91,-128.73 327.35,-238.31 511.74,-322.8 201.06,-92.3 411.67,-156.3 631.27,-191.24 246.25,-39.24 492.08,-37.73 737.63,-2.59 216.72,31.06 419.86,107.41 617.07,199.42 232.29,108.21 436.92,260.04 628.22,426.3 106.74,92.43 198.54,206.13 279.96,322.21 99.92,142.2 199.52,289.03 268.39,447.38 178.48,410.38 278.71,837.62 201.42,1289.76 -7.42,43.68 -19.73,86.87 -32.77,129.3 -44.03,141.64 -81.45,286.12 -136.57,423.53 -48.79,121.53 -113.48,237.37 -178.99,351.2 -120.2,208.79 -247.4,413.49 -369.11,621.44 -159.23,271.79 -316.82,544.64 -472.88,818.24 -84.56,148.11 -161.37,300.57 -247.41,447.87 -118.56,203.4 -243.73,403 -363.69,605.56 -87.89,148.19 -172.49,298.36 -257.55,448.19 -80.36,141.78 -157.69,285.35 -239.67,426.15 -112.8,193.71 -230.55,384.36 -342.89,578.36 -133.6,231.14 -262.55,464.97 -395.51,696.56 -124.58,216.84 -252.17,432.03 -377.41,648.59 -109.61,189.34 -218.58,379.08 -326.19,569.65 -24.59,43.47 -39.56,92.26 -63.89,135.83 -54.32,97.83 -135.17,104.54 -201.03,13.96 -27.81,-38.16 -42.46,-85.89 -62.08,-129.75 -16.05,-35.39 -27.21,-73.44 -46.58,-106.77 -169.65,-289.62 -341.91,-577.73 -510.99,-867.62 -100.65,-172.78 -195.01,-349.25 -295.35,-522.27 -122.97,-211.76 -249.96,-420.98 -373.38,-632.53 -88.84,-152.14 -173.96,-306.47 -262.02,-459.07 -74.17,-128.24 -152.03,-254.54 -225.26,-383.37 -132.79,-233.59 -261.6,-469.35 -395.2,-702.41 -117.31,-204.28 -239.08,-405.8 -358.34,-608.89 -89.95,-153.53 -179.49,-307.31 -268.07,-461.51 -71.03,-123.84 -141.26,-248.21 -210.48,-373.13 -79.03,-142.55 -151.02,-289.37 -235.75,-428.25 -171.09,-279.92 -348.59,-556.07 -523.8,-833.45 -34.94,-55.37 -90.61,-67.39 -150.49,-66.2 -404.5,7.62 -3624.02,15.25 -4028.42,23.88 -116.04,2.52 -205.89,-40.15 -263.67,-142.94 -119.96,-213.13 -237.5,-428.01 -360.54,-639.32 -75.68,-129.64 -159.86,-254.12 -240.27,-380.86 -23.88,-37.49 -52.81,-72.68 -71.38,-112.58 -40.61,-87.44 -0.59,-148.64 95.97,-147.06 81.42,1.36 162.84,13.04 244.29,13.25 237.57,0.69 475.15,-3.01 712.66,-3.33 543.98,-0.69 3902.94,-0.24 4446.78,-0.8 81.66,-0.14 163.33,-2.06 244.85,-5.98 71.31,-3.32 128.95,21.29 167.04,80.47 102.29,159.07 205.39,317.67 302.17,479.94 165.28,277.06 327,556.29 488.47,835.52 189.52,327.35 377.4,655.62 565.63,983.63 135.52,236.24 269.57,473.25 405.8,709.15 161.33,279.34 325.11,557.45 486.51,836.92 126.96,219.85 250.94,441.26 378.1,661.11 55.44,96.06 118.42,188.01 172.99,284.78 44.37,78.66 78.89,163.37 122.72,242.44 25.6,46.02 55.95,92.3 93.66,128.35 44.77,42.95 97.02,30.81 133.57,-19.66 5.45,-7.55 10.74,-15.5 14.06,-23.92 81.91,-214.73 220.19,-397.93 332.91,-595.39 119.25,-209.35 240.72,-417.65 362.15,-625.75 130.76,-223.97 264.01,-446.54 393.63,-671.24 84.32,-145.81 162.9,-294.84 246.39,-441.05 64.39,-112.69 133.78,-222.5 198.61,-334.88 80.51,-139.78 156.27,-282.23 238.21,-421.08 141.26,-239.61 285.6,-477.43 428.81,-715.94 157.95,-263.42 261.19,-538.77 206.98,-855.14 -21.17,-123.98 -63.55,-235.51 -136.82,-336.55 -121.32,-167.73 -262.52,-318.01 -455.6,-397.96 -295.04,-122.13 -583.39,-98.49 -866.19,58.97 -218.13,121.22 -350.43,309.48 -436.12,529.74 -54,138.63 -60.93,290.45 -44.87,444.2 25.67,246.46 159.06,442.45 284.78,639.35 135.98,213 145.42,258.21 12.7,470.47 -98.31,157.1 -192.63,316.72 -284.38,477.74 -102.82,180.39 -200.63,363.41 -300.69,545.34 -49.81,90.65 -109.47,96.07 -168.16,11.16 -34.73,-50.05 -61.8,-105.38 -91.77,-158.68 -133.71,-237.4 -267.47,-474.66 -400.72,-712.13 -74.39,-132.65 -149.58,-264.78 -220.51,-399.22 -28.43,-53.61 -49.84,-111.64 -68.54,-169.42 -30.92,-95.37 -66.2,-190.57 -83.03,-288.81 -30.36,-176.47 -48.23,-355.16 -71.42,-532.76 6.23,-0.59 12.59,-1.05 18.93,-1.65z"/>
  <path class="fil0" d="M16590.4 1671.87l121.46 0 -1199.8 2131.18 -38.75 66.62c-40.71,70.48 -79.94,141.89 -118.91,213.37 -39.1,71.56 -77.96,143.05 -118.25,213.87 -105.51,185.22 -213.72,368.75 -320.28,553.39 -103.91,179.93 -205.89,360.71 -310.88,539.91 -128.35,219.07 -261.19,435.67 -387.87,655.62 -84.07,146.16 -159.9,296.89 -241.31,444.55 -49.35,89.14 -100.65,177.46 -154.1,264.33 -71.86,116.8 -149.68,230.12 -219.45,348.26 -81.91,138.7 -157.24,281.26 -236.7,421.5 -94.01,166.09 -188.93,331.52 -284.45,496.8 -105.76,182.95 -212.21,365.4 -319.02,547.75 -149.83,255.97 -301.02,510.86 -449.41,767.6 -38.96,67.35 -64.88,142.23 -104.68,208.75 -27,44.91 -62.43,88.73 -103.7,120.2 -60.12,45.78 -123.32,23.89 -144.61,-48.23 -62.01,-209.21 -459.66,-862.41 -607.87,-1084.21 -73.52,-109.92 -68.03,-203.76 3.57,-314.17 111.67,-172.32 214.18,-350.54 319.37,-526.92 83.76,-140 166.93,-280.34 248,-421.74 63.51,-110.87 123.28,-223.9 185.57,-335.54 20.78,-37.18 44.41,-72.82 66.31,-109.36 103.73,-173.36 209.39,-345.82 310.63,-520.65 134.48,-232.54 264.12,-467.95 398.67,-700.69 210.33,-364.25 423.28,-727.1 634.7,-1090.93 102.29,-176.1 204.38,-352.32 304.72,-529.6 72.04,-127.37 137.8,-258.39 211.98,-384.67 132.52,-225.16 270.73,-446.82 403.7,-671.78 122.72,-207.56 242.23,-417.06 362.05,-626.3 106.7,-186.38 212.95,-373 317.17,-560.77 33.37,-59.87 81.81,-79.6 146.96,-79.35 321.02,1.26 642,0.9 963.1,1.01 120.8,0.14 241.42,0.14 362.08,0.14l0 10.04z"/>
 </g>
</svg>
