<svg width="167" height="168" xmlns="http://www.w3.org/2000/svg" xmlns:xlink="http://www.w3.org/1999/xlink" xml:space="preserve" overflow="hidden"><defs><clipPath id="clip0"><rect x="447" y="6854" width="167" height="168"/></clipPath></defs><g clip-path="url(#clip0)" transform="translate(-447 -6854)"><path d="M530.462 6854 513.641 6855.71 497.975 6860.6 483.797 6868.34 471.445 6878.59 461.254 6891.02 453.559 6905.28 448.695 6921.04 447 6937.96 448.695 6954.89 453.559 6970.65 461.254 6984.91 471.445 6997.34 483.797 7007.59 497.975 7015.33 513.641 7020.22 530.462 7021.93 547.284 7020.22 562.951 7015.33 577.129 7007.59 589.482 6997.34 599.673 6984.91 607.368 6970.65 612.231 6954.89 613.927 6937.96 612.231 6921.04 607.368 6905.28 599.673 6891.02 589.482 6878.59 577.129 6868.34 562.951 6860.6 547.284 6855.71 530.462 6854Z" fill="#49BDBC" fill-rule="evenodd"/><path d="M520.974 6975.87 520.413 6973.16 518.85 6970.89 516.551 6969.33 513.793 6968.75 511.081 6969.3 508.86 6970.81 507.361 6973.04 506.801 6975.77 507.338 6978.56 508.837 6980.81 511.085 6982.32 513.871 6982.87 516.56 6982.31 518.813 6980.78 520.371 6978.55 520.974 6975.87Z" fill="#FFFFFF" fill-rule="evenodd"/><path d="M556.238 6975.91 555.71 6973.12 554.216 6970.84 551.972 6969.31 549.195 6968.74 546.506 6969.3 544.24 6970.83 542.663 6973.07 542.052 6975.74 542.571 6978.45 544.07 6980.71 546.295 6982.26 549.016 6982.87 551.82 6982.37 554.105 6980.9 555.655 6978.68 556.238 6975.91Z" fill="#FFFFFF" fill-rule="evenodd"/><path d="M570.899 6916.81 569.354 6914.87 514.51 6914.64 498.585 6914.66 497.896 6914.22 497.156 6910.66 495.4 6904.08 494.14 6903.05 476.997 6903 476.046 6903.39 474.308 6905.38 474 6906.68 475.305 6909.69 476.602 6910.41 483.985 6910.6 488.725 6910.35 489.492 6910.99 492.949 6925.21 502.976 6965.88 504.097 6966.73 531.653 6966.73 557.084 6966.74 559.59 6966.09 560.693 6964.51 560.454 6961.1 559.203 6959.65 556.864 6959.26 510.759 6959.28 508.207 6959.02 508.736 6957.34 508.028 6954.99 509.219 6955.2 561.13 6948.74 562.311 6947.64 570.899 6916.81Z" fill="#FFFFFF" fill-rule="evenodd"/></g></svg>