<?xml version="1.0" encoding="UTF-8"?>
<svg version="1.1" xmlns="http://www.w3.org/2000/svg" width="512" height="512">
<path d="M0 0 C0.9355925 -0.00974854 1.871185 -0.01949707 2.83512878 -0.02954102 C23.24416486 -0.1984297 42.96079539 -0.03089418 63.0078125 4.23828125 C63.93158691 4.42551758 64.85536133 4.61275391 65.80712891 4.80566406 C101.4803425 12.13655694 136.04867954 27.05718327 165.0078125 49.23828125 C165.5857959 49.67495117 166.1637793 50.11162109 166.75927734 50.56152344 C175.26586251 57.002323 183.31244993 63.84319145 191.0078125 71.23828125 C191.60239258 71.80562988 192.19697266 72.37297852 192.80957031 72.95751953 C201.15799553 80.96365501 208.80764092 89.18319073 215.69726562 98.47900391 C217.02578341 100.26240538 218.38141287 102.02237641 219.7421875 103.78125 C227.10148221 113.40694237 233.21551204 123.60687263 239.0078125 134.23828125 C239.3697168 134.89876465 239.73162109 135.55924805 240.10449219 136.23974609 C257.60985188 168.57859478 268.92626162 206.31643928 269.24609375 243.23046875 C269.25584229 244.16606125 269.26559082 245.10165375 269.27563477 246.06559753 C269.44452345 266.47463361 269.27698793 286.19126414 265.0078125 306.23828125 C264.82057617 307.16205566 264.63333984 308.08583008 264.44042969 309.03759766 C257.10953681 344.71081125 242.18891048 379.27914829 220.0078125 408.23828125 C219.57114258 408.81626465 219.13447266 409.39424805 218.68457031 409.98974609 C212.24377075 418.49633126 205.4029023 426.54291868 198.0078125 434.23828125 C197.44046387 434.83286133 196.87311523 435.42744141 196.28857422 436.04003906 C188.28243874 444.38846428 180.06290302 452.03810967 170.76708984 458.92773438 C168.98368837 460.25625216 167.22371734 461.61188162 165.46484375 462.97265625 C155.83915138 470.33195096 145.63922112 476.44598079 135.0078125 482.23828125 C134.3473291 482.60018555 133.6868457 482.96208984 133.00634766 483.33496094 C100.66749897 500.84032063 62.92965447 512.15673037 26.015625 512.4765625 C25.0800325 512.48631104 24.14444 512.49605957 23.18049622 512.50610352 C2.77146014 512.6749922 -16.94517039 512.50745668 -36.9921875 508.23828125 C-37.91596191 508.05104492 -38.83973633 507.86380859 -39.79150391 507.67089844 C-75.4647175 500.34000556 -110.03305454 485.41937923 -138.9921875 463.23828125 C-139.5701709 462.80161133 -140.1481543 462.36494141 -140.74365234 461.91503906 C-149.25023751 455.4742395 -157.29682493 448.63337105 -164.9921875 441.23828125 C-165.58676758 440.67093262 -166.18134766 440.10358398 -166.79394531 439.51904297 C-175.14237053 431.51290749 -182.79201592 423.29337177 -189.68164062 413.99755859 C-191.01015841 412.21415712 -192.36578787 410.45418609 -193.7265625 408.6953125 C-201.08585721 399.06962013 -207.19988704 388.86968987 -212.9921875 378.23828125 C-213.3540918 377.57779785 -213.71599609 376.91731445 -214.08886719 376.23681641 C-231.59422688 343.89796772 -242.91063662 306.16012322 -243.23046875 269.24609375 C-243.24021729 268.31050125 -243.24996582 267.37490875 -243.26000977 266.41096497 C-243.42889845 246.00192889 -243.26136293 226.28529836 -238.9921875 206.23828125 C-238.80495117 205.31450684 -238.61771484 204.39073242 -238.42480469 203.43896484 C-231.09391181 167.76575125 -216.17328548 133.19741421 -193.9921875 104.23828125 C-193.55551758 103.66029785 -193.11884766 103.08231445 -192.66894531 102.48681641 C-186.22814575 93.98023124 -179.3872773 85.93364382 -171.9921875 78.23828125 C-171.42483887 77.64370117 -170.85749023 77.04912109 -170.27294922 76.43652344 C-162.26681374 68.08809822 -154.04727802 60.43845283 -144.75146484 53.54882812 C-142.96806337 52.22031034 -141.20809234 50.86468088 -139.44921875 49.50390625 C-129.82352638 42.14461154 -119.62359612 36.03058171 -108.9921875 30.23828125 C-108.3317041 29.87637695 -107.6712207 29.51447266 -106.99072266 29.14160156 C-74.65187397 11.63624187 -36.91402947 0.31983213 0 0 Z " fill="#4ABEBD" transform="translate(242.9921875,-0.23828125)"/>
<path d="M0 0 C0.75925781 -0.02578125 1.51851562 -0.0515625 2.30078125 -0.078125 C6.23374263 0.46257673 8.90769436 2.22735808 11.30566406 5.37207031 C11.76682617 6.18256836 12.22798828 6.99306641 12.703125 7.828125 C13.22712891 8.73361084 13.75113281 9.63909668 14.29101562 10.57202148 C14.83435547 11.53825439 15.37769531 12.5044873 15.9375 13.5 C17.09847283 15.51720658 18.25993192 17.53413339 19.421875 19.55078125 C19.98326172 20.53385254 20.54464844 21.51692383 21.12304688 22.52978516 C23.09008806 25.95000564 25.13185903 29.32016891 27.1875 32.6875 C31.4329741 39.70946327 35.44724913 46.85915708 39.47094727 54.00976562 C48.36537229 69.8050156 57.4743934 85.47709836 66.625 101.125 C72.36488584 110.94147238 78.02073253 120.80465348 83.65380859 130.68261719 C90.00673895 141.82152504 96.41296631 152.9293258 102.82861328 164.03222656 C105.32504984 168.35361267 107.81887882 172.67650057 110.3125 176.99951172 C111.55580247 179.1548931 112.79929003 181.31016773 114.04296875 183.46533203 C116.94084358 188.48714821 119.83762411 193.50958549 122.73025513 198.53442383 C123.74697198 200.30045522 124.76405658 202.06627431 125.78125 203.83203125 C127.05150873 206.03734155 128.32109018 208.24304216 129.58984375 210.44921875 C130.16992188 211.45597656 130.75 212.46273437 131.34765625 213.5 C131.90324219 214.48411865 132.45882812 215.4682373 133.03125 216.48217773 C134.60804488 219.23207872 134.60804488 219.23207872 136.421875 221.53540039 C142.4431554 229.77264785 141.58197904 238.90869506 141.5625 248.6875 C141.5794918 250.54421272 141.59888963 252.40090488 141.62060547 254.25756836 C141.66859957 258.99326757 141.68081743 263.72831848 141.68286133 268.4642334 C141.68882902 272.04814683 141.7166441 275.63171112 141.74569702 279.21549988 C141.7773043 283.24779945 141.79725466 287.28010822 141.8125 291.3125 C141.81554138 292.07182831 141.81858276 292.83115662 141.82171631 293.61349487 C141.82733422 295.73327263 141.82540959 297.85288034 141.8203125 299.97265625 C141.81918457 301.16640869 141.81805664 302.36016113 141.81689453 303.59008789 C141.6875 306.25 141.6875 306.25 140.6875 307.25 C135.29611915 308.23496381 131.53383058 305.0655264 127.1875 302.3125 C125.40224928 301.21028122 123.61570966 300.11014828 121.828125 299.01171875 C120.85294922 298.41020996 119.87777344 297.80870117 118.87304688 297.18896484 C114.19444107 294.34121137 109.46255113 291.58788909 104.72802734 288.83447266 C102.19590237 287.36169193 99.6705709 285.87822805 97.15087891 284.38427734 C89.50028642 279.84914885 89.50028642 279.84914885 81.6640625 275.64453125 C70.62199038 269.8496518 66.43584975 262.09859605 61.10205078 251.06542969 C58.63645396 246.15806645 55.80340873 241.46980599 53 236.75 C47.85534951 227.99296716 42.77934839 219.19862621 37.75 210.375 C30.72209544 198.04939062 23.64509312 185.75277495 16.54638672 173.46777344 C14.05009662 169.14664084 11.55639764 164.82401605 9.06298828 160.5012207 C7.81818999 158.34332187 6.57307562 156.18560534 5.32763672 154.02807617 C2.44573037 149.03516399 -0.43390812 144.04099707 -3.30451965 139.0415802 C-12.17042262 123.5079404 -12.17042262 123.5079404 -21.50390625 108.25390625 C-23.65903004 104.67444579 -25.63353376 101.01224646 -27.6237793 97.33911133 C-30.65725944 91.79008368 -33.79898381 86.30257436 -36.9375 80.8125 C-37.28233429 80.20826202 -37.62716858 79.60402405 -37.98245239 78.98147583 C-43.12219135 69.98030336 -48.35962427 61.0454462 -53.77001953 52.20336914 C-54.22618652 51.45434326 -54.68235352 50.70531738 -55.15234375 49.93359375 C-55.54800537 49.28962646 -55.94366699 48.64565918 -56.35131836 47.98217773 C-58.94574135 43.30668088 -59.38347046 38.42115239 -58.3125 33.25 C-53.26093987 26.99649657 -46.09891862 23.11682097 -39.0625 19.5 C-37.13433896 18.47989903 -35.20728559 17.45770209 -33.28125 16.43359375 C-32.3015625 15.91522949 -31.321875 15.39686523 -30.3125 14.86279297 C-25.34182042 12.19056728 -20.45251521 9.37889041 -15.5625 6.5625 C-13.81778522 5.55846012 -12.07300007 4.55454252 -10.328125 3.55078125 C-9.23419434 2.91910034 -9.23419434 2.91910034 -8.11816406 2.2746582 C-5.19403195 0.61530416 -3.36460601 0.0678576 0 0 Z " fill="#F9FCFC" transform="translate(170.3125,102.75)"/>
<path d="M0 0 C0.91928787 0.31633896 1.83857574 0.63267792 2.78572083 0.95860291 C5.72140777 1.97149439 8.65167531 2.99914444 11.58203125 4.02734375 C13.50031296 4.69173215 15.41893043 5.35515195 17.33789062 6.01757812 C24.90961267 8.63634162 32.46932086 11.28921375 40.02929688 13.94165039 C40.92957108 14.25730453 41.82984528 14.57295868 42.75740051 14.8981781 C44.44448459 15.4899906 46.13126582 16.08266749 47.81767273 16.67640686 C53.27614238 18.5929933 58.75602475 20.4122801 64.27734375 22.140625 C66.39453125 22.96484375 66.39453125 22.96484375 68.39453125 24.96484375 C68.51953125 27.58984375 68.51953125 27.58984375 68.39453125 29.96484375 C61.14437115 32.98039707 53.86817838 35.47362804 46.39453125 37.96484375 C46.06453125 52.15484375 45.73453125 66.34484375 45.39453125 80.96484375 C30.76777867 89.01388511 16.11730544 96.70987941 0.96972656 103.7265625 C-0.81199832 104.58330393 -2.57247834 105.48513885 -4.31347656 106.421875 C-5.18584961 106.88980469 -6.05822266 107.35773438 -6.95703125 107.83984375 C-7.73127441 108.27039063 -8.50551758 108.7009375 -9.30322266 109.14453125 C-13.34595115 110.58499442 -15.99900486 109.23433704 -19.80908203 107.54125977 C-21.01777057 106.93999229 -22.2231768 106.33209583 -23.42578125 105.71875 C-24.07829865 105.39178131 -24.73081604 105.06481262 -25.40310669 104.72793579 C-27.51539685 103.66723506 -29.62305007 102.5976862 -31.73046875 101.52734375 C-33.17921797 100.79634538 -34.62811176 100.06563346 -36.07714844 99.33520508 C-44.02683717 95.32065917 -51.96204183 91.27652741 -59.85546875 87.15234375 C-60.60328613 86.76312744 -61.35110352 86.37391113 -62.12158203 85.97290039 C-63.96477319 84.99849256 -65.78676713 83.98423016 -67.60546875 82.96484375 C-68.68924805 82.45630859 -68.68924805 82.45630859 -69.79492188 81.9375 C-72.82462478 78.6365292 -72.09454305 74.79148375 -71.99609375 70.484375 C-71.99043396 69.55638596 -71.98477417 68.62839691 -71.97894287 67.67228699 C-71.95654251 64.70678229 -71.90633948 61.74248355 -71.85546875 58.77734375 C-71.83540848 56.76759557 -71.81715688 54.75782846 -71.80078125 52.74804688 C-71.75666571 47.81984746 -71.68761299 42.8925501 -71.60546875 37.96484375 C-72.69976196 37.67589233 -72.69976196 37.67589233 -73.81616211 37.38110352 C-83.59101063 34.76479623 -83.59101063 34.76479623 -88.16796875 32.90234375 C-89.37646484 32.42087891 -89.37646484 32.42087891 -90.609375 31.9296875 C-92.60546875 30.96484375 -92.60546875 30.96484375 -94.60546875 28.96484375 C-94.60546875 27.64484375 -94.60546875 26.32484375 -94.60546875 24.96484375 C-89.56749926 22.25926754 -84.80098237 20.32335275 -79.3006134 18.78546143 C-76.79528541 18.02263913 -74.43175211 17.13101351 -72.0144043 16.12792969 C-66.38516978 13.84591836 -60.67990425 11.83248237 -54.9375 9.85546875 C-53.31892342 9.29795929 -53.31892342 9.29795929 -51.66764832 8.72918701 C-49.40340166 7.95118803 -47.13860737 7.17478116 -44.87329102 6.39990234 C-42.56273449 5.60745966 -40.25381542 4.81022699 -37.9465332 4.00830078 C-34.59285231 2.84273426 -31.23461302 1.69130772 -27.875 0.54296875 C-26.84881058 0.18366272 -25.82262115 -0.17564331 -24.76533508 -0.5458374 C-15.40497092 -3.71137689 -9.19714083 -3.26048807 0 0 Z " fill="#F8FCFC" transform="translate(331.60546875,105.03515625)"/>
<path d="M0 0 C0.35078613 0.63164062 0.70157227 1.26328125 1.06298828 1.9140625 C8.12136393 14.60862085 15.26400344 27.24191443 22.61035156 39.77246094 C27.08048774 47.40409907 31.49224052 55.06795379 35.875 62.75 C36.20769897 63.33298859 36.54039795 63.91597717 36.88317871 64.51663208 C39.5976369 69.27382091 42.30926525 74.03262101 45.02075195 78.79150391 C47.38751434 82.94508977 49.75545323 87.09800191 52.125 91.25 C52.45704437 91.83192108 52.78908875 92.41384216 53.13119507 93.01339722 C57.77045652 101.1403324 62.4595671 109.2368259 67.1875 117.3125 C71.94947424 125.46038801 76.69098625 133.61950001 81.375 141.8125 C81.94114014 142.7919458 82.50728027 143.7713916 83.09057617 144.78051758 C83.60467041 145.68439209 84.11876465 146.5882666 84.6484375 147.51953125 C85.33172119 148.71219604 85.33172119 148.71219604 86.02880859 149.92895508 C87 152 87 152 87 155 C83.54565686 157.00695291 80.0858937 159.00436779 76.625 161 C75.64015625 161.57234375 74.6553125 162.1446875 73.640625 162.734375 C72.69960937 163.27578125 71.75859375 163.8171875 70.7890625 164.375 C69.91975098 164.87773437 69.05043945 165.38046875 68.15478516 165.8984375 C66 167 66 167 64 167 C63.44054687 165.9790625 62.88109375 164.958125 62.3046875 163.90625 C56.85325906 154.00342107 51.23969809 144.20533905 45.52685547 134.45117188 C41.15422134 126.98472604 36.81727926 119.49857966 32.5 112 C27.69166471 103.65191149 22.86102861 95.31751623 18 87 C13.13897027 78.68248186 8.30861899 70.34792636 3.5 62 C-1.50028407 53.32129364 -6.51767526 44.65290068 -11.5625 36 C-12.12195313 35.03964844 -12.68140625 34.07929688 -13.2578125 33.08984375 C-13.79277344 32.17332031 -14.32773438 31.25679687 -14.87890625 30.3125 C-15.64678467 28.99185547 -15.64678467 28.99185547 -16.43017578 27.64453125 C-17.51700118 25.81366147 -18.63203352 23.99935294 -19.76904297 22.19921875 C-20.32865723 21.30847656 -20.88827148 20.41773438 -21.46484375 19.5 C-21.97523193 18.7059375 -22.48562012 17.911875 -23.01147461 17.09375 C-24 15 -24 15 -23 12 C-20.99047852 10.55786133 -20.99047852 10.55786133 -18.37890625 9.08203125 C-17.44369141 8.55029297 -16.50847656 8.01855469 -15.54492188 7.47070312 C-14.56072266 6.92349609 -13.57652344 6.37628906 -12.5625 5.8125 C-11.09200195 4.97428711 -11.09200195 4.97428711 -9.59179688 4.11914062 C-2.28396864 0 -2.28396864 0 0 0 Z " fill="#4CBEBD" transform="translate(182,195)"/>
<path d="M0 0 C2.90821724 1.47014861 3.72312369 3.5299981 5.24584961 6.37963867 C5.85807373 7.50684326 6.47029785 8.63404785 7.10107422 9.79541016 C7.41897919 10.39521698 7.73688416 10.9950238 8.06442261 11.61300659 C9.3942605 14.12184971 10.75252159 16.61489114 12.10929871 19.10923767 C12.78562508 20.3534225 13.46044382 21.59842807 14.13374329 22.84425354 C16.61294076 27.42776991 19.18630399 31.94059379 21.86303711 36.41088867 C26.22583402 43.73369255 30.45680724 51.12950049 34.67553711 58.53588867 C40.29806759 68.40276852 45.97367609 78.2360821 51.70800781 88.03857422 C57.20778575 97.44352914 62.65361249 106.87910754 68.08959961 116.32104492 C70.41028369 120.35072735 72.73810219 124.37608972 75.07597351 128.39581299 C76.46433688 130.7832842 77.85028781 133.17215188 79.2361145 135.56109619 C80.21482816 137.24593487 81.19697276 138.92877906 82.17919922 140.61157227 C82.77224854 141.63460449 83.36529785 142.65763672 83.97631836 143.71166992 C84.76002808 145.05805542 84.76002808 145.05805542 85.55957031 146.43164062 C86.88369151 148.89552369 87.94260285 151.35703598 88.92553711 153.97338867 C85.49758114 156.01075453 82.05678546 158.02535066 78.61303711 160.03588867 C77.63657227 160.61661133 76.66010742 161.19733398 75.65405273 161.7956543 C74.71625977 162.3402832 73.7784668 162.88491211 72.81225586 163.44604492 C71.94818115 163.95401611 71.08410645 164.4619873 70.19384766 164.98535156 C67.92553711 165.97338867 67.92553711 165.97338867 64.92553711 164.97338867 C63.44604492 162.88574219 63.44604492 162.88574219 61.87866211 160.10229492 C61.28891602 159.0665332 60.69916992 158.03077148 60.09155273 156.96362305 C59.45926758 155.8324707 58.82698242 154.70131836 58.17553711 153.53588867 C57.50658145 152.35500226 56.83664371 151.17467169 56.16577148 149.99487305 C54.77131818 147.54079911 53.38114398 145.08437463 51.99389648 142.6262207 C48.8438658 137.05259424 45.63179862 131.51478768 42.42553711 125.97338867 C41.17652363 123.80950829 39.92782691 121.64544503 38.67944336 119.48120117 C38.06085449 118.40902344 37.44226563 117.3368457 36.80493164 116.23217773 C34.91573545 112.95639302 33.02789602 109.67982975 31.14038086 106.40307617 C24.52494381 94.92173914 17.88407928 83.45613766 11.19702148 72.01635742 C6.25940254 63.56297606 1.36555003 55.08472724 -3.50415039 46.59204102 C-6.59293154 41.21837465 -9.72197672 35.87683928 -12.94555664 30.58276367 C-13.86195923 29.06900146 -13.86195923 29.06900146 -14.796875 27.5246582 C-15.95503177 25.6180977 -17.12334839 23.71766039 -18.30322266 21.82446289 C-19.07170532 20.55626709 -19.07170532 20.55626709 -19.85571289 19.26245117 C-20.53730469 18.15957764 -20.53730469 18.15957764 -21.23266602 17.03442383 C-22.07446289 14.97338867 -22.07446289 14.97338867 -21.97021484 12.88232422 C-20.76624519 10.31654643 -19.39895669 9.56285821 -16.96118164 8.14135742 C-16.12522461 7.65344727 -15.28926758 7.16553711 -14.42797852 6.6628418 C-13.54819336 6.16719727 -12.6684082 5.67155273 -11.76196289 5.16088867 C-10.8937793 4.6459082 -10.0255957 4.13092773 -9.13110352 3.6003418 C-2.7885914 -0.03577221 -2.7885914 -0.03577221 0 0 Z " fill="#4CBEBD" transform="translate(211.074462890625,178.026611328125)"/>
<path d="M0 0 C1.99550146 0.67818015 3.99604973 1.34162854 6.00048828 1.99291992 C8.19104988 2.73694606 10.38096586 3.48287508 12.5703125 4.23046875 C13.73255341 4.62575272 14.89479431 5.02103668 16.09225464 5.42829895 C19.77041097 6.67968553 23.44771621 7.93355201 27.125 9.1875 C29.63275648 10.04118021 32.14056843 10.89469748 34.6484375 11.74804688 C40.76626779 13.83014736 46.88340299 15.91427948 53 18 C53 18.66 53 19.32 53 20 C51.37477722 20.54174093 49.74955138 21.08347266 48.12431335 21.62516785 C46.66366291 22.11209269 45.20306264 22.59916805 43.74250793 23.08638 C39.67738463 24.44216741 35.61138393 25.79522 31.54370117 27.14331055 C24.20296611 29.57886577 16.87061299 32.02524031 9.58203125 34.61328125 C8.50695312 34.9896875 7.431875 35.36609375 6.32421875 35.75390625 C4.37748949 36.43816517 2.43561238 37.13646126 0.5 37.8515625 C-0.37011719 38.15449219 -1.24023438 38.45742187 -2.13671875 38.76953125 C-2.86592529 39.03354736 -3.59513184 39.29756348 -4.34643555 39.56958008 C-11.90502691 40.79561712 -19.03283788 38.25280957 -26.08203125 35.76171875 C-27.01746262 35.43967972 -27.95289398 35.11764069 -28.91667175 34.7858429 C-31.88506287 33.76181237 -34.84880167 32.72502401 -37.8125 31.6875 C-39.78941065 31.0023806 -41.76662204 30.31812832 -43.74414062 29.63476562 C-47.50732468 28.33363017 -51.26905209 27.02841582 -55.02978516 25.72021484 C-60.66981996 23.76242072 -66.32675296 21.8595518 -72 20 C-72 19.34 -72 18.68 -72 18 C-64.10063496 15.17592138 -56.19103245 12.38362234 -48.26673317 9.63038349 C-44.58678078 8.35072124 -40.91117763 7.0607466 -37.24365234 5.74584961 C-33.69900846 4.47545689 -30.14540546 3.23393461 -26.58405685 2.01119041 C-25.23228048 1.54159776 -23.88393767 1.06198908 -22.53944778 0.57192421 C-13.83673577 -2.59105385 -8.52202369 -3.69389219 0 0 Z " fill="#4CBEBD" transform="translate(328,113)"/>
<path d="M0 0 C3.24494243 0.81123561 6.14281386 1.76580651 9.25390625 2.953125 C10.27419922 3.324375 11.29449219 3.695625 12.34570312 4.078125 C14.47123961 4.85245523 16.58882228 5.64901875 18.69726562 6.46875 C26.4219781 9.21617435 31.41407309 9.03962054 39 6 C39.90435791 5.64131836 40.80871582 5.28263672 41.74047852 4.91308594 C43.27593831 4.28487898 44.80352115 3.63687408 46.3203125 2.96484375 C50.09951109 1.6041119 54.07894284 0.87134604 58 0 C58 12.54 58 25.08 58 38 C40.47058824 48.01680672 40.47058824 48.01680672 36.5 50.125 C35.3965625 50.72570312 34.293125 51.32640625 33.15625 51.9453125 C28.47415446 53.50987413 25.47156265 51.6778605 21.11572266 49.67138672 C20.1416748 49.17912598 19.16762695 48.68686523 18.1640625 48.1796875 C16.72474365 47.45628174 16.72474365 47.45628174 15.25634766 46.71826172 C14.05800293 46.10998535 12.8596582 45.50170898 11.625 44.875 C7.78875 42.93625 3.9525 40.9975 0 39 C0 26.13 0 13.26 0 0 Z " fill="#4BBEBD" transform="translate(290,153)"/>
<path d="M0 0 C1.74702162 2.25939898 3.03645176 4.26305355 4.375 6.75 C4.75712646 7.42579102 5.13925293 8.10158203 5.53295898 8.79785156 C6.31737022 10.18561842 7.09494713 11.57726995 7.86572266 12.97265625 C8.92141108 14.85953458 10.01509133 16.7142508 11.13671875 18.5625 C16 26.61206897 16 26.61206897 16 30 C15.34330322 30.37584229 14.68660645 30.75168457 14.01000977 31.13891602 C10.8593386 32.94417282 7.71072305 34.7529772 4.5625 36.5625 C3.98619843 36.89314453 3.40989685 37.22378906 2.81613159 37.56445312 C-3.90117819 41.42102839 -10.5823158 45.32499034 -17.1875 49.37109375 C-17.75928482 49.72007217 -18.33106964 50.0690506 -18.92018127 50.42860413 C-21.67604688 52.11130804 -24.42466665 53.80409669 -27.16381836 55.51391602 C-28.15003174 56.11776123 -29.13624512 56.72160645 -30.15234375 57.34375 C-31.4515979 58.15102539 -31.4515979 58.15102539 -32.77709961 58.97460938 C-35 60 -35 60 -38 59 C-39.50219727 56.82275391 -39.50219727 56.82275391 -41.06640625 53.9765625 C-41.63423828 52.955625 -42.20207031 51.9346875 -42.78710938 50.8828125 C-43.37298828 49.80773437 -43.95886719 48.73265625 -44.5625 47.625 C-45.72968453 45.51258734 -46.89762022 43.40058949 -48.06640625 41.2890625 C-48.58146729 40.34756348 -49.09652832 39.40606445 -49.62719727 38.43603516 C-51.03651299 35.8642472 -51.03651299 35.8642472 -53 33 C-52.83573252 30.00881741 -52.55645709 28.53037835 -50.36425781 26.44091797 C-49.65108398 26.00408691 -48.93791016 25.56725586 -48.203125 25.1171875 C-47.38779297 24.6128418 -46.57246094 24.10849609 -45.73242188 23.58886719 C-40.77179251 20.70432681 -35.77883108 17.88895511 -30.75 15.125 C-22.81190981 10.7387706 -14.99710009 6.29415341 -7.453125 1.2578125 C-4.55201311 -0.22970028 -3.18970169 -0.80506848 0 0 Z " fill="#4CBEBD" transform="translate(173,111)"/>
<path d="M0 0 C2.23712883 1.68752077 3.2888271 3.26369939 4.67407227 5.69726562 C5.1574707 6.53902344 5.64086914 7.38078125 6.13891602 8.24804688 C6.87561523 9.56869141 6.87561523 9.56869141 7.62719727 10.91601562 C8.13379883 11.79644531 8.64040039 12.676875 9.16235352 13.58398438 C12.87719727 20.1225099 12.87719727 20.1225099 12.87719727 22.41601562 C12.29977783 22.72716309 11.7223584 23.03831055 11.12744141 23.35888672 C-2.76925626 30.85982782 -16.58088162 38.4653855 -29.98999023 46.81445312 C-30.59447998 47.19053711 -31.19896973 47.56662109 -31.82177734 47.95410156 C-33.44544891 48.96920981 -35.06364132 49.99306735 -36.68139648 51.01757812 C-39.12280273 52.41601562 -39.12280273 52.41601562 -41.12280273 52.41601562 C-42.54321289 50.39648437 -42.54321289 50.39648437 -44.16186523 47.60351562 C-45.03198242 46.11464844 -45.03198242 46.11464844 -45.91967773 44.59570312 C-46.52295898 43.54640625 -47.12624023 42.49710938 -47.74780273 41.41601562 C-48.35881836 40.36671875 -48.96983398 39.31742188 -49.59936523 38.23632812 C-51.11383859 35.63332704 -52.62127117 33.02649673 -54.12280273 30.41601562 C-51.76008878 27.79889276 -49.28844421 26.24279813 -46.20483398 24.55273438 C-45.20863037 24.00166016 -44.21242676 23.45058594 -43.18603516 22.8828125 C-42.11329346 22.29564453 -41.04055176 21.70847656 -39.93530273 21.10351562 C-32.97940692 17.27433949 -26.06626005 13.41868548 -19.27124023 9.31054688 C-18.18609131 8.65803955 -17.10094238 8.00553223 -15.98291016 7.33325195 C-13.89451473 6.07121507 -11.81366369 4.79659467 -9.74121094 3.50854492 C-8.79850342 2.94176025 -7.8557959 2.37497559 -6.88452148 1.79101562 C-5.64641724 1.02917969 -5.64641724 1.02917969 -4.38330078 0.25195312 C-2.12280273 -0.58398438 -2.12280273 -0.58398438 0 0 Z " fill="#4CBFBE" transform="translate(194.122802734375,148.583984375)"/>
<path d="M0 0 C0.76214036 10.35694312 1.13430792 20.6135207 1 31 C-0.59714844 31.03867187 -0.59714844 31.03867187 -2.2265625 31.078125 C-11.02606441 31.38995448 -18.58421473 32.35260152 -26.94921875 35.2578125 C-31.78488641 36.43422333 -34.81520753 35.60104435 -39.2109375 33.37109375 C-40.77714844 32.41396484 -40.77714844 32.41396484 -42.375 31.4375 C-43.96441406 30.47650391 -43.96441406 30.47650391 -45.5859375 29.49609375 C-46.38257813 29.00238281 -47.17921875 28.50867188 -48 28 C-45.53130845 25.24486564 -42.82225209 23.60028776 -39.6171875 21.77734375 C-38.53953125 21.16060791 -37.461875 20.54387207 -36.3515625 19.90844727 C-34.63066406 18.93282837 -34.63066406 18.93282837 -32.875 17.9375 C-30.51722009 16.59291033 -28.16104275 15.24552183 -25.8046875 13.8984375 C-25.22144714 13.56568314 -24.63820679 13.23292877 -24.03729248 12.89009094 C-18.28025835 9.60108665 -12.57653225 6.22365103 -6.90185547 2.79467773 C-2.21699652 0 -2.21699652 0 0 0 Z " fill="#4CBFBE" transform="translate(302,341)"/>
<path d="M0 0 C0 11.55 0 23.1 0 35 C-10 40 -10 40 -12 40 C-12 27.79 -12 15.58 -12 3 C-3 0 -3 0 0 0 Z " fill="#4FBFBF" transform="translate(369,146)"/>
<path d="M0 0 C4 1 4 1 12 4 C12 16.21 12 28.42 12 41 C8.04 39.02 4.08 37.04 0 35 C0 23.45 0 11.9 0 0 Z " fill="#4BBEBD" transform="translate(269,146)"/>
<path d="M0 0 C0.88365234 0.00451172 1.76730469 0.00902344 2.67773438 0.01367188 C4.84768559 0.02540134 7.01760172 0.04333505 9.1875 0.0625 C9.1875 5.6725 9.1875 11.2825 9.1875 17.0625 C0.51188485 12.92489893 -7.62406885 8.07381987 -15.8125 3.0625 C-15.4825 2.4025 -15.1525 1.7425 -14.8125 1.0625 C-10.05297907 -0.45406078 -4.93986118 -0.04788829 0 0 Z " fill="#51C0BF" transform="translate(294.8125,380.9375)"/>
</svg>
