<svg width="229" height="230" xmlns="http://www.w3.org/2000/svg" xmlns:xlink="http://www.w3.org/1999/xlink" xml:space="preserve" overflow="hidden"><defs><clipPath id="clip0"><rect x="1160" y="1888" width="229" height="230"/></clipPath></defs><g clip-path="url(#clip0)" transform="translate(-1160 -1888)"><path d="M1274.42 1888 1257.52 1889.25 1241.38 1892.87 1226.19 1898.68 1212.12 1906.51 1199.35 1916.19 1188.07 1927.53 1178.43 1940.35 1170.63 1954.47 1164.84 1969.73 1161.24 1985.94 1160 2002.92 1161.24 2019.91 1164.84 2036.11 1170.63 2051.37 1178.43 2065.5 1188.07 2078.32 1199.35 2089.66 1212.12 2099.33 1226.19 2107.16 1241.38 2112.98 1257.52 2116.6 1274.42 2117.84 1291.33 2116.6 1307.47 2112.98 1322.66 2107.16 1336.73 2099.33 1349.5 2089.66 1360.78 2078.32 1370.41 2065.5 1378.21 2051.37 1384 2036.11 1387.61 2019.91 1388.85 2002.92 1387.61 1985.94 1384 1969.73 1378.21 1954.47 1370.41 1940.35 1360.78 1927.53 1349.5 1916.19 1336.73 1906.51 1322.66 1898.68 1307.47 1892.87 1291.33 1889.25 1274.42 1888Z" fill="#49BDBC" fill-rule="evenodd"/><path d="M1230.16 2029.71 1217.92 2041.15 1208.58 2052.58 1208 2054.87 1208.94 2057.61 1211.41 2060.36 1219.5 2067.67 1227.6 2074.53 1243.84 2089.17 1246.39 2090.54 1248.91 2091 1251.36 2090.54 1253.71 2088.71 1255.27 2086.88 1248.08 2086.88 1246.19 2085.05 1238.23 2078.19 1230.25 2070.88 1222.26 2064.02 1212.4 2055.33 1212.52 2053.95 1214.12 2052.12 1215.82 2050.29 1217.5 2048.47 1219.15 2046.64 1220.75 2044.81 1221.99 2043.43 1230.03 2043.43 1227.88 2041.6 1226.37 2040.23 1225.24 2039.32 1228.88 2035.66 1229.93 2032.91 1236.49 2032.91 1235.53 2032 1232.71 2030.17 1230.16 2029.71Z" fill="#FFFFFF" fill-rule="evenodd"/><path d="M1281.97 2046.18 1275.75 2046.18 1276.36 2046.64 1278.74 2050.29 1280.38 2053.04 1284.43 2059.44 1284.37 2060.36 1283.28 2061.73 1281.41 2064.02 1280.75 2066.3 1298.13 2088.26 1303.04 2091 1305.6 2090.54 1308.22 2089.17 1310.82 2086.88 1302.6 2086.88 1290.03 2072.71 1284.6 2066.3 1286.03 2064.93 1295.37 2056.7 1287.93 2056.7 1286.98 2054.41 1286.93 2053.95 1286.86 2053.95 1282.53 2047.55 1281.97 2046.18Z" fill="#FFFFFF" fill-rule="evenodd"/><path d="M1236.49 2032.91 1229.93 2032.91 1232.93 2035.66 1240.77 2042.98 1264.44 2063.56 1266.79 2065.84 1266.84 2067.22 1264.71 2069.5 1261.24 2073.16 1257.82 2077.28 1254.44 2080.94 1249.43 2086.88 1255.27 2086.88 1257.62 2084.14 1261.5 2080.02 1265.36 2075.45 1269.2 2071.33 1270.79 2068.59 1271.27 2066.3 1270.64 2064.02 1268.91 2061.73 1267.75 2060.36 1267.49 2059.44 1269.38 2056.7 1263.16 2056.7 1242.23 2037.95 1241.76 2037.03 1242.27 2036.12 1242.91 2033.83 1237.46 2033.83 1236.49 2032.91Z" fill="#FFFFFF" fill-rule="evenodd"/><path d="M1335.95 2043.43 1329.85 2043.43 1332.23 2045.72 1334.08 2048.01 1335.87 2050.29 1339.61 2053.95 1339.51 2055.33 1331.16 2062.64 1324.75 2068.59 1309.78 2081.85 1307.58 2083.68 1303.97 2086.88 1310.82 2086.88 1324.34 2074.99 1340.42 2060.36 1343.04 2057.61 1343.99 2054.87 1343.28 2052.12 1340.95 2048.92 1335.95 2043.43Z" fill="#FFFFFF" fill-rule="evenodd"/><path d="M1328.12 2034.29 1321.36 2034.29 1323.32 2035.2 1324.51 2037.03 1326.61 2040.23 1324.93 2040.69 1320.9 2044.35 1309.98 2053.95 1308.53 2055.33 1311.56 2058.98 1313.16 2057.61 1317.55 2053.95 1326.61 2045.72 1328.69 2043.89 1329.85 2043.43 1335.95 2043.43 1330.98 2037.95 1328.12 2034.29Z" fill="#FFFFFF" fill-rule="evenodd"/><path d="M1230.03 2043.43 1222.86 2043.43 1224.25 2044.81 1230.48 2050.29 1237.56 2056.7 1238.36 2057.16 1240.94 2058.53 1242.57 2057.16 1242.54 2055.33 1242.51 2054.41 1241.6 2053.5 1234.33 2047.09 1230.03 2043.43Z" fill="#FFFFFF" fill-rule="evenodd"/><path d="M1284.67 1968.43 1269.35 1968.43 1272.52 1969.34 1272.98 1970.71 1273.39 1973.46 1273.44 1974.83 1273.32 1976.66 1272.57 1991.29 1272.53 2006.84 1272.77 2021.02 1272.95 2036.12 1267.87 2049.38 1266.34 2052.12 1263.96 2056.24 1263.16 2056.7 1269.38 2056.7 1270.01 2055.78 1271.66 2053.04 1275.75 2046.18 1281.97 2046.18 1279.89 2041.15 1278.82 2033.83 1279.17 2026.05 1279.35 2024.68 1279.2 2023.31 1279.24 2016.45 1279.28 2012.79 1279.43 2006.39 1279.48 2004.1 1279.52 2000.44 1279.49 1994.5 1279.28 1988.09 1279.07 1984.89 1278.89 1981.23 1278.75 1977.12 1278.67 1973.91 1278.58 1969.34 1284.67 1968.43Z" fill="#FFFFFF" fill-rule="evenodd"/><path d="M1288.28 1919.03 1283.14 1919.03 1284.23 1921.78 1285.19 1923.6 1288.9 1930.92 1292.35 1938.7 1295.64 1946.02 1300.42 1957.45 1301.9 1961.11 1303.37 1964.77 1304.87 1968.43 1307.61 1977.12 1309.02 1985.81 1309.39 1993.58 1309.42 1994.95 1309.17 2003.19 1308.88 2008.22 1308.13 2017.82 1307.7 2022.4 1307.63 2024.22 1310.17 2037.03 1309.89 2037.95 1308.49 2039.32 1304.03 2042.98 1295.17 2051.21 1289.14 2056.24 1287.93 2056.7 1295.37 2056.7 1319.74 2035.2 1320.3 2034.74 1321.36 2034.29 1328.12 2034.29 1327.76 2033.83 1314.51 2033.83 1313.85 2033.37 1312.61 2028.8 1312.1 2026.05 1312.48 2022.85 1313.21 2016.45 1313.77 2010.05 1314.12 2003.19 1314.23 1993.58 1314.19 1990.38 1312.42 1975.74 1306.39 1959.28 1296.16 1935.5 1290.73 1923.6 1289.53 1920.86 1288.28 1919.03Z" fill="#FFFFFF" fill-rule="evenodd"/><path d="M1271.22 1914 1260.97 1924.06 1252.32 1943.27 1244.25 1962.48 1242.67 1966.6 1241.18 1970.26 1237.88 1989.47 1237.78 2000.9 1238.35 2010.96 1239.41 2021.94 1239.5 2023.31 1237.46 2033.83 1242.91 2033.83 1243.94 2030.17 1244.31 2024.68 1243.94 2018.74 1243.39 2012.79 1242.74 2004.1 1242.5 1996.33 1242.53 1993.58 1242.91 1985.81 1244.44 1976.66 1246.33 1970.26 1248.68 1963.85 1251.3 1957.91 1253.98 1951.5 1259.74 1938.7 1266.48 1924.06 1270.87 1919.03 1288.28 1919.03 1287.97 1918.57 1285.45 1916.29 1275.46 1916.29 1271.22 1914Z" fill="#FFFFFF" fill-rule="evenodd"/><path d="M1322.1 2030.17 1319.08 2030.17 1315.92 2032.46 1314.51 2033.83 1327.76 2033.83 1324.99 2031.09 1322.1 2030.17Z" fill="#FFFFFF" fill-rule="evenodd"/><path d="M1283.14 1919.03 1270.87 1919.03 1272.96 1919.49 1273.54 1923.6 1273.47 1925.43 1272.4 1935.5 1269.51 1962.94 1269.07 1963.85 1267.47 1964.31 1264.93 1965.22 1258.86 1980.78 1257.2 1999.53 1257.45 2009.13 1257.48 2009.59 1257.61 2010.05 1257.81 2011.88 1258.31 2013.71 1262.37 2013.25 1262.41 2011.88 1262.45 1994.5 1262.86 1988.55 1263.6 1982.15 1264.5 1976.2 1264.81 1973.91 1265.24 1972.09 1267.91 1968.88 1269.35 1968.43 1289.91 1968.43 1289.33 1967.51 1287.77 1966.14 1275.14 1966.14 1274.37 1965.22 1274.44 1963.85 1275.04 1956.99 1275.71 1950.13 1281.17 1950.13 1280.5 1943.73 1279.56 1934.58 1278.46 1923.6 1277.62 1920.4 1283.14 1919.03Z" fill="#FFFFFF" fill-rule="evenodd"/><path d="M1289.91 1968.43 1284.67 1968.43 1286.25 1970.71 1286.85 1973.46 1289.19 1988.55 1289.65 2003.19 1289.6 2008.22 1289.56 2011.88 1289.45 2013.25 1293.92 2013.71 1294.2 2011.88 1294.41 2010.05 1294.86 2003.19 1294.7 1996.33 1294.13 1989.47 1293.34 1982.6 1293.02 1979.86 1292.64 1977.57 1292.2 1974.83 1291.71 1972.54 1290.8 1969.8 1289.91 1968.43Z" fill="#FFFFFF" fill-rule="evenodd"/><path d="M1281.17 1950.13 1276.27 1950.13 1276.96 1956.53 1277.63 1962.94 1277.75 1964.31 1277.63 1965.22 1275.14 1966.14 1287.77 1966.14 1287.26 1965.68 1284.54 1964.31 1283.35 1963.85 1282.54 1963.4 1281.17 1950.13Z" fill="#FFFFFF" fill-rule="evenodd"/><path d="M1280.73 1914 1276.47 1916.29 1285.45 1916.29 1283.43 1914.46 1280.73 1914Z" fill="#FFFFFF" fill-rule="evenodd"/></g></svg>